:FULLY-SPECIFIED
:FORCE-ALL-JOINTS-BE-3DOF
:DEGREES
1631
root -14.7221 14.5362 19.447 700.502 -71.1677 379.009
lfemur 11.1179 -11.5889 -13.2067
ltibia 31.0106 0 0
lfoot -21.3612 28.8193 0
ltoes -44.8858 0 0
rfemur -52.7138 -14.1943 7.77832
rtibia 66.1048 0 0
rfoot -8.51727 10.1659 0
rtoes 2.91578 0 0
lowerback 13.35 4.41699 -7.97553
upperback 0.0348562 4.50752 -0.899689
thorax -8.03916 2.45232 2.58795
lowerneck 0.87755 -12.4743 -12.6697
upperneck 4.03234 -17.129 10.0616
head 3.00628 -8.58425 4.32225
lclavicle -9.35146e-15 9.56662e-15 0
lhumerus -72.7019 -16.5018 103.946
lradius 104.928 0 0
lwrist 56.7843 0 0
lhand 0.0512058 51.5348 0
lfingers 7.12502 0 0
lthumb 25.6375 79.8081 0
rclavicle -9.35146e-15 9.56662e-15 0
rhumerus 47.9649 -4.63643 -55.1461
rradius 17.5532 0 0
rwrist 23.2085 0 0
rhand -21.0876 -36.2861 0
rfingers 7.12502 0 0
rthumb 5.82282 -68.9717 0
1632
root -14.718 14.5312 19.4565 700.586 -71.1892 378.919
lfemur 10.9437 -11.5664 -13.1933
ltibia 31.2084 0 0
lfoot -21.3668 28.7634 0
ltoes -44.8222 0 0
rfemur -52.6875 -14.126 7.75417
rtibia 65.9742 0 0
rfoot -8.40502 10.143 0
rtoes 2.85067 0 0
lowerback 13.3562 4.38796 -7.96372
upperback 0.0231154 4.4726 -0.870801
thorax -8.04994 2.43681 2.62097
lowerneck 0.87203 -12.4656 -12.6627
upperneck 4.02511 -17.1154 10.0526
head 3.00404 -8.57814 4.31944
lclavicle -8.87381e-15 9.36889e-15 0
lhumerus -72.4808 -16.6183 103.968
lradius 104.799 0 0
lwrist 56.5325 0 0
lhand -0.133811 51.4238 0
lfingers 7.12502 0 0
lthumb 25.4595 79.7135 0
rclavicle -8.87381e-15 9.36889e-15 0
rhumerus 47.8058 -4.58274 -55.2041
rradius 17.9204 0 0
rwrist 22.8102 0 0
rhand -20.6267 -36.3119 0
rfingers 7.12502 0 0
rthumb 6.18198 -68.5368 0
1633
root -14.7139 14.5262 19.466 700.684 -71.2132 378.817
lfemur 10.7484 -11.5437 -13.1778
ltibia 31.4341 0 0
lfoot -21.3731 28.7038 0
ltoes -44.7507 0 0
rfemur -52.6607 -14.0509 7.72851
rtibia 65.833 0 0
rfoot -8.28432 10.1182 0
rtoes 2.77468 0 0
lowerback 13.3626 4.3563 -7.94978
upperback 0.0101243 4.43473 -0.839082
thorax -8.06168 2.41996 2.65657
lowerneck 0.867528 -12.4575 -12.6559
upperneck 4.01473 -17.1025 10.0449
head 3.00109 -8.57251 4.3171
lclavicle -8.33221e-15 9.14461e-15 0
lhumerus -72.2421 -16.7454 103.991
lradius 104.659 0 0
lwrist 56.2597 0 0
lhand -0.34219 51.2996 0
lfingers 7.12502 0 0
lthumb 25.2591 79.6077 0
rclavicle -8.33221e-15 9.14461e-15 0
rhumerus 47.6337 -4.52412 -55.2646
rradius 18.318 0 0
rwrist 22.3712 0 0
rhand -20.127 -36.3399 0
rfingers 7.12502 0 0
rthumb 6.57189 -68.0679 0
1634
root -14.7099 14.5211 19.4755 700.796 -71.2398 378.701
lfemur 10.5314 -11.5219 -13.1602
ltibia 31.6899 0 0
lfoot -21.38 28.6419 0
ltoes -44.6711 0 0
rfemur -52.6345 -13.9693 7.70196
rtibia 65.6832 0 0
rfoot -8.15726 10.0919 0
rtoes 2.68622 0 0
lowerback 13.369 4.32236 -7.93335
upperback -0.00406801 4.39444 -0.804767
thorax -8.07428 2.40199 2.69416
lowerneck 0.864818 -12.4508 -12.6498
upperneck 4.00009 -17.0915 10.0395
head 2.99724 -8.56792 4.31563
lclavicle -7.72256e-15 8.89203e-15 0
lhumerus -71.9897 -16.8819 104.017
lradius 104.511 0 0
lwrist 55.97 0 0
lhand -0.574878 51.162 0
lfingers 7.12502 0 0
lthumb 25.0353 79.4908 0
rclavicle -7.72256e-15 8.89203e-15 0
rhumerus 47.451 -4.46116 -55.3255
rradius 18.7402 0 0
rwrist 21.8939 0 0
rhand -19.5952 -36.3697 0
rfingers 7.12502 0 0
rthumb 6.98753 -67.5726 0
1635
root -14.7058 14.5161 19.485 700.925 -71.269 378.571
lfemur 10.2923 -11.5019 -13.14
ltibia 31.9783 0 0
lfoot -21.3876 28.579 0
ltoes -44.583 0 0
rfemur -52.6103 -13.8818 7.67512
rtibia 65.5269 0 0
rfoot -8.02596 10.0646 0
rtoes 2.58373 0 0
lowerback 13.3752 4.28646 -7.91407
upperback -0.0194127 4.35222 -0.768093
thorax -8.0876 2.38313 2.73316
lowerneck 0.864676 -12.4462 -12.6449
upperneck 3.9801 -17.0836 10.0375
head 2.99227 -8.56494 4.31538
lclavicle -7.0407e-15 8.60941e-15 0
lhumerus -71.7272 -17.0265 104.045
lradius 104.356 0 0
lwrist 55.667 0 0
lhand -0.832818 51.0109 0
lfingers 7.12502 0 0
lthumb 24.7872 79.3626 0
rclavicle -7.0407e-15 8.60941e-15 0
rhumerus 47.2604 -4.39444 -55.3849
rradius 19.1814 0 0
rwrist 21.3809 0 0
rhand -19.0381 -36.4009 0
rfingers 7.12502 0 0
rthumb 7.42389 -67.0584 0
1636
root -14.7018 14.5111 19.4945 701.071 -71.3009 378.427
lfemur 10.0306 -11.485 -13.1172
ltibia 32.3015 0 0
lfoot -21.3958 28.5163 0
ltoes -44.4862 0 0
rfemur -52.589 -13.7888 7.64858
rtibia 65.3663 0 0
rfoot -7.89251 10.0365 0
rtoes 2.46562 0 0
lowerback 13.3808 4.24896 -7.89158
upperback -0.0358608 4.30859 -0.729295
thorax -8.10151 2.36358 2.77298
lowerneck 0.867877 -12.4446 -12.6415
upperneck 3.95367 -17.0798 10.0401
head 2.98598 -8.56411 4.31674
lclavicle -6.28252e-15 8.29501e-15 0
lhumerus -71.4584 -17.1779 104.075
lradius 104.198 0 0
lwrist 55.3548 0 0
lhand -1.11696 50.8459 0
lfingers 7.12502 0 0
lthumb 24.5139 79.2231 0
rclavicle -6.28252e-15 8.29501e-15 0
rhumerus 47.0643 -4.32456 -55.4408
rradius 19.636 0 0
rwrist 20.8345 0 0
rhand -18.4624 -36.4332 0
rfingers 7.12502 0 0
rthumb 7.87596 -66.5329 0
1637
root -14.6977 14.506 19.5041 701.238 -71.3355 378.266
lfemur 9.74566 -11.4722 -13.0915
ltibia 32.6619 0 0
lfoot -21.4046 28.4553 0
ltoes -44.3804 0 0
rfemur -52.572 -13.6908 7.62295
rtibia 65.2033 0 0
rfoot -7.75904 10.0081 0
rtoes 2.33031 0 0
lowerback 13.3857 4.21018 -7.86552
upperback -0.0533634 4.26407 -0.688607
thorax -8.1159 2.34356 2.81305
lowerneck 0.875196 -12.4467 -12.6402
upperneck 3.9197 -17.0812 10.0482
head 2.97817 -8.566 4.32009
lclavicle -5.44387e-15 7.94706e-15 0
lhumerus -71.1871 -17.3348 104.106
lradius 104.038 0 0
lwrist 55.037 0 0
lhand -1.42823 50.667 0
lfingers 7.12502 0 0
lthumb 24.2145 79.0721 0
rclavicle -5.44387e-15 7.94706e-15 0
rhumerus 46.8651 -4.2521 -55.4912
rradius 20.0983 0 0
rwrist 20.2571 0 0
rhand -17.8748 -36.466 0
rfingers 7.12502 0 0
rthumb 8.33873 -66.0037 0
1638
root -14.6937 14.501 19.5136 701.426 -71.3728 378.089
lfemur 9.43712 -11.4646 -13.0627
ltibia 33.0619 0 0
lfoot -21.414 28.3973 0
ltoes -44.2655 0 0
rfemur -52.5605 -13.5882 7.59884
rtibia 65.04 0 0
rfoot -7.62763 9.97971 0
rtoes 2.17623 0 0
lowerback 13.3896 4.17047 -7.83553
upperback -0.0718714 4.21915 -0.646267
thorax -8.13062 2.32328 2.85279
lowerneck 0.887409 -12.4533 -12.6415
upperneck 3.87712 -17.0889 10.0631
head 2.96863 -8.57116 4.32579
lclavicle -4.52064e-15 7.56383e-15 0
lhumerus -70.917 -17.4959 104.14
lradius 103.878 0 0
lwrist 54.7176 0 0
lhand -1.76759 50.4738 0
lfingers 7.12502 0 0
lthumb 23.8881 78.9097 0
rclavicle -4.52064e-15 7.56383e-15 0
rhumerus 46.6655 -4.17766 -55.5341
rradius 20.5626 0 0
rwrist 19.6514 0 0
rhand -17.2821 -36.4992 0
rfingers 7.12502 0 0
rthumb 8.80718 -65.4784 0
